<svg xmlns="http://www.w3.org/2000/svg" viewBox="0 0 50 50"><defs><style>.cls-1{fill:#fff;}</style></defs><title>btn_shuffle</title><g id="Layer_2" data-name="Layer 2"><g id="Layer_1-2" data-name="Layer 1"><path class="cls-1" d="M46.88,0H3.13A3.13,3.13,0,0,0,0,3.13V46.88A3.13,3.13,0,0,0,3.13,50H46.88A3.12,3.12,0,0,0,50,46.88V3.13A3.13,3.13,0,0,0,46.88,0ZM20,31.52a12,12,0,0,1-5.86,2.53,1.75,1.75,0,0,1-.4,0H8.94a2.08,2.08,0,0,1,0-4.15h4.64a7.67,7.67,0,0,0,3.87-1.67A2.08,2.08,0,0,1,20,31.52Zm22.57,1.56-4.15,4.14A1.77,1.77,0,1,1,36,34.71l.62-.62H30.78A9.1,9.1,0,0,1,21.69,25a5,5,0,0,0-4.94-4.94H8.94a2.08,2.08,0,0,1,0-4.15h7.81A9.1,9.1,0,0,1,25.84,25a5,5,0,0,0,4.94,4.94H37l-1-1a1.78,1.78,0,1,1,2.51-2.52l4.15,4.15A1.77,1.77,0,0,1,42.61,33.08Zm0-13.64-4.15,4.15a1.77,1.77,0,0,1-2.51,0,1.77,1.77,0,0,1,0-2.52l1-1H33.74a5,5,0,0,0-2.47.66A17.31,17.31,0,0,0,29.78,22a2.08,2.08,0,0,1-2.83-3,18.8,18.8,0,0,1,2.24-1.81,9.07,9.07,0,0,1,4.55-1.22h2.83L36,15.29a1.77,1.77,0,1,1,2.51-2.51l4.15,4.14A1.77,1.77,0,0,1,42.61,19.44Z"/></g></g></svg>