<svg xmlns="http://www.w3.org/2000/svg" viewBox="0 0 50 50"><defs><style>.cls-1{fill:#fff;}</style></defs><title>btn_reset</title><g id="Layer_2" data-name="Layer 2"><g id="Layer_1-2" data-name="Layer 1"><path class="cls-1" d="M0,3.13V46.88A3.13,3.13,0,0,0,3.13,50H46.88A3.12,3.12,0,0,0,50,46.88V3.13A3.13,3.13,0,0,0,46.88,0H3.13A3.13,3.13,0,0,0,0,3.13ZM25.39,38.6a12.32,12.32,0,0,1-12.58-10,1.92,1.92,0,0,1,1.9-2.26h0a2,2,0,0,1,1.93,1.57,8.37,8.37,0,1,0,8.64-9.93.41.41,0,0,0-.42.41v3.24a.4.4,0,0,1-.63.33l-8-5.44a.66.66,0,0,1,0-1.08l8-5.93a.41.41,0,0,1,.64.33v3.8a.4.4,0,0,0,.39.39,12.31,12.31,0,0,1,.09,24.61Z"/></g></g></svg>