<svg xmlns="http://www.w3.org/2000/svg" viewBox="0 0 294.35 65.41"><defs><style>.cls-1{fill:#fff;}</style></defs><title>btn_menulg</title><g id="Layer_2" data-name="Layer 2"><g id="Layer_1-2" data-name="Layer 1"><path class="cls-1" d="M288.46,0H5.89A5.89,5.89,0,0,0,0,5.89V59.52a5.89,5.89,0,0,0,5.89,5.89H288.46a5.88,5.88,0,0,0,5.89-5.89V5.89A5.89,5.89,0,0,0,288.46,0ZM103,35.2a.63.63,0,0,1-.62.63H94a.5.5,0,0,0-.52.51v4a.5.5,0,0,1-.79.41L82.74,34a.82.82,0,0,1,0-1.34l9.94-7.4a.51.51,0,0,1,.81.4v4.74a.48.48,0,0,0,.49.49h8.41a.63.63,0,0,1,.62.63Zm32.8,7.36a.54.54,0,0,1-.61.61H132.8a.54.54,0,0,1-.61-.61V28.81h-.11l-3,9.72a.72.72,0,0,1-.73.58H126a.72.72,0,0,1-.73-.58l-3-9.75h-.12V42.56A.73.73,0,0,1,122,43a.68.68,0,0,1-.49.13h-2.38a.54.54,0,0,1-.61-.61V25.13a.54.54,0,0,1,.61-.61h4.33a.54.54,0,0,1,.55.4l3.07,10.24h.17l3.11-10.24a.49.49,0,0,1,.55-.4h4.29a.54.54,0,0,1,.61.61ZM153.13,27.1c0,.41-.19.61-.58.61h-6.06c-.23,0-.35.11-.35.32V31.8c0,.21.12.32.35.32h5a.54.54,0,0,1,.61.61v2a.54.54,0,0,1-.61.61h-5c-.23,0-.35.1-.35.32v4c0,.21.12.32.35.32h6.06c.39,0,.58.2.58.61v2c0,.4-.19.61-.58.61h-9.48a.54.54,0,0,1-.61-.61V25.13a.54.54,0,0,1,.61-.61h9.48c.39,0,.58.2.58.61Zm19.31,15.46a.54.54,0,0,1-.61.61h-2.11a1,1,0,0,1-.93-.58L163,31.8h-.12V42.56a.54.54,0,0,1-.6.61h-2.41a.54.54,0,0,1-.61-.61V25.13a.54.54,0,0,1,.61-.61H162a.83.83,0,0,1,.82.4l5.85,11h.12V25.13a.54.54,0,0,1,.61-.61h2.4a.54.54,0,0,1,.61.61Zm19.29-4.12a4.65,4.65,0,0,1-1.26,3.49,4.81,4.81,0,0,1-3.53,1.24h-3.19A4.85,4.85,0,0,1,180.22,42,4.65,4.65,0,0,1,179,38.44V25.13a.54.54,0,0,1,.61-.61H182a.54.54,0,0,1,.61.61V38.26a1.87,1.87,0,0,0,.39,1.33,1.78,1.78,0,0,0,1.29.39h2a1.45,1.45,0,0,0,1.71-1.72V25.13a.53.53,0,0,1,.6-.61h2.44c.43,0,.64.19.64.58Z"/></g></g></svg>