<svg xmlns="http://www.w3.org/2000/svg" viewBox="0 0 294.35 65.41"><defs><style>.cls-1{fill:#fff;}</style></defs><title>btn_next</title><g id="Layer_2" data-name="Layer 2"><g id="Layer_1-2" data-name="Layer 1"><path class="cls-1" d="M288.46,0H5.89A5.89,5.89,0,0,0,0,5.89V59.52a5.89,5.89,0,0,0,5.89,5.89H288.46a5.88,5.88,0,0,0,5.89-5.89V5.89A5.89,5.89,0,0,0,288.46,0ZM107.87,41.42a.54.54,0,0,1-.61.61h-2.12a1,1,0,0,1-.92-.58l-5.8-10.79H98.3V41.42a.54.54,0,0,1-.61.61h-2.4a.54.54,0,0,1-.61-.61V24a.54.54,0,0,1,.61-.61h2.17a.81.81,0,0,1,.81.41l5.86,11h.12V24a.54.54,0,0,1,.61-.61h2.4a.54.54,0,0,1,.61.61ZM125.21,26c0,.41-.19.61-.58.61h-6.06c-.23,0-.35.11-.35.32v3.77c0,.21.12.32.35.32h5a.54.54,0,0,1,.61.61v2a.54.54,0,0,1-.61.61h-5c-.23,0-.35.11-.35.32v4c0,.21.12.32.35.32h6.06c.39,0,.58.2.58.61v2c0,.41-.19.61-.58.61h-9.48a.54.54,0,0,1-.61-.61V24a.54.54,0,0,1,.61-.61h9.48c.39,0,.58.21.58.61Zm19.17,15.88A.46.46,0,0,1,144,42h-2.9a.83.83,0,0,1-.84-.58l-2.88-6.27h-.11l-2.9,6.27a.9.9,0,0,1-.87.58h-2.87a.43.43,0,0,1-.41-.19.45.45,0,0,1,0-.45l4.5-8.9L130.32,24a.43.43,0,0,1,.4-.64h2.79a.92.92,0,0,1,1,.61l2.76,6.24h.11L140.06,24a1,1,0,0,1,.93-.61h2.84a.46.46,0,0,1,.44.67l-4.41,8.44,4.49,8.87A.47.47,0,0,1,144.38,41.84ZM160.53,26a.54.54,0,0,1-.61.61h-3.3c-.23,0-.35.11-.35.32V41.42a.54.54,0,0,1-.61.61h-2.43c-.43,0-.64-.2-.64-.61V26.89a.29.29,0,0,0-.32-.32H149a.54.54,0,0,1-.61-.61V24a.54.54,0,0,1,.61-.61h11a.54.54,0,0,1,.61.61Zm38.81,7.11-9.94,7.4a.51.51,0,0,1-.81-.41V35.32a.49.49,0,0,0-.49-.49h-8.41a.62.62,0,0,1-.62-.62V30.53a.62.62,0,0,1,.62-.62h8.38a.51.51,0,0,0,.52-.51v-4a.51.51,0,0,1,.79-.42l9.94,6.8A.82.82,0,0,1,199.34,33.07Z"/></g></g></svg>