<svg xmlns="http://www.w3.org/2000/svg" viewBox="0 0 50 50"><defs><style>.cls-1{fill:#fff;}</style></defs><title>btn_back</title><g id="Layer_2" data-name="Layer 2"><g id="Layer_1-2" data-name="Layer 1"><path class="cls-1" d="M0,3.13V46.88A3.13,3.13,0,0,0,3.13,50H46.88A3.12,3.12,0,0,0,50,46.88V3.13A3.13,3.13,0,0,0,46.88,0H3.13A3.13,3.13,0,0,0,0,3.13ZM40.75,28.32a1,1,0,0,1-1,1H27a.78.78,0,0,0-.81.78v6.19a.77.77,0,0,1-1.2.64L9.8,26.49a1.24,1.24,0,0,1,0-2L25,13.13a.77.77,0,0,1,1.23.62V21a.76.76,0,0,0,.75.75H39.8a1,1,0,0,1,1,1Z"/></g></g></svg>