<svg xmlns="http://www.w3.org/2000/svg" viewBox="0 0 60 69.28"><defs><style>.cls-1,.cls-3{fill:#fef4c9;}.cls-2{fill:#ffe37a;}.cls-3{stroke:#ffe37a;stroke-miterlimit:10;}</style></defs><title>hex1</title><g id="Layer_2" data-name="Layer 2"><g id="Layer_1-2" data-name="Layer 1"><polygon class="cls-1" points="6 48.5 6 20.79 30 6.93 54 20.79 54 48.5 30 62.35 6 48.5"/><path class="cls-2" d="M30,13.86,48,24.25V45L30,55.43,12,45V24.25L30,13.86M30,0,0,17.32V52L30,69.28,60,52V17.32L30,0Z"/><path class="cls-3" d="M30,14.1c-1.67,2.89,7.2,8,8.87,5.12-1.37,2.38,7.55,7.53,8.92,5.15-3.63,0-3.63,10.36,0,10.36-3.29,0-3.29,10.18,0,10.18-1.7-2.95-10.2,2-8.49,4.91-1.78-3.09-11.08,2.28-9.3,5.36,1.65-2.85-7.66-8.22-9.31-5.37,1.71-3-6.78-7.85-8.48-4.9,3.17,0,3.17-11.2,0-11.2,3,0,3-9.34,0-9.34,1.71,3,10.78-2.27,9.07-5.24,1.7,3,10.43-2.08,8.72-5"/></g></g></svg>