<svg xmlns="http://www.w3.org/2000/svg" viewBox="0 0 60 69.28"><defs><style>.cls-1{fill:#fee572;}.cls-2{fill:#ffd22b;}</style></defs><title>hex2</title><g id="Layer_2" data-name="Layer 2"><g id="Layer_1-2" data-name="Layer 1"><polygon class="cls-1" points="2.5 50.52 2.5 18.76 30 2.89 57.5 18.76 57.5 50.52 30 66.39 2.5 50.52"/><path class="cls-2" d="M30,5.77,55,20.21V49.07L30,63.51,5,49.07V20.21L30,5.77M30,0,0,17.32V52L30,69.28,60,52V17.32L30,0Z"/><circle class="cls-2" cx="43.89" cy="30.56" r="4.58"/><path class="cls-2" d="M39.31,30.05c0-6.11,4.07-9.16,4.58-21.37.51,13.23,4.58,15.26,4.58,21.37Z"/><circle class="cls-2" cx="37.78" cy="18.8" r="2.54"/><path class="cls-2" d="M35.24,18.52c0-3.4,2.26-5.09,2.54-11.88.29,7.35,2.55,8.48,2.55,11.88Z"/><path class="cls-2" d="M3.7,47.35c6.1,7.12,9.15-1,12.72,8.64,0,0,10.68-2.54,13.22,7.13,3.56-7.63,7.38-8.63,17.81-9.67l-4.07,6.11L30.15,66.68,2.68,50.4Z"/></g></g></svg>