<svg xmlns="http://www.w3.org/2000/svg" viewBox="0 0 60 69.28"><defs><style>.cls-1{fill:#ffd847;}.cls-2{fill:#edaa00;}.cls-3,.cls-5{opacity:0.25;}.cls-4,.cls-6{fill:#feeda0;}.cls-5{fill:#de8300;}.cls-6{opacity:0.5;}</style></defs><title>hex3</title><g id="Layer_2" data-name="Layer 2"><g id="Layer_1-2" data-name="Layer 1"><polygon class="cls-1" points="6 48.5 6 20.79 30 6.93 54 20.79 54 48.5 30 62.35 6 48.5"/><path class="cls-2" d="M30,13.86,48,24.25V45L30,55.43,12,45V24.25L30,13.86M30,0,0,17.32V52L30,69.28,60,52V17.32L30,0Z"/><g class="cls-3"><path class="cls-4" d="M12.21,24.37,30,14.1V0L0,17.32Zm35.58,0V44.91L60,52V17.32ZM30,55.18,12.21,44.91,0,52,30,69.28Z"/></g><path class="cls-5" d="M12.21,44.91,30,55.18S27.47,43.89,12.21,44.91Z"/><path class="cls-5" d="M47.79,44.91,30,55.18S32.53,43.89,47.79,44.91Z"/><path class="cls-5" d="M12.21,44.91V24.37A18.28,18.28,0,0,1,12.21,44.91Z"/><circle class="cls-6" cx="17.95" cy="38.93" r="2.04"/><circle class="cls-6" cx="14.81" cy="43" r="1.02"/><circle class="cls-6" cx="30.08" cy="51.14" r="1.02"/></g></g></svg>