<svg xmlns="http://www.w3.org/2000/svg" viewBox="0 0 60 69.28"><defs><style>.cls-1{fill:#ffbd24;}.cls-2{fill:#de8300;stroke:#f5a720;stroke-miterlimit:10;stroke-width:3px;}</style></defs><title>hex5</title><g id="Layer_2" data-name="Layer 2"><g id="Layer_1-2" data-name="Layer 1"><polygon class="cls-1" points="6 48.5 6 20.79 30 6.93 54 20.79 54 48.5 30 62.35 6 48.5"/><path class="cls-1" d="M30,13.86,48,24.25V45L30,55.43,12,45V24.25L30,13.86M30,0,0,17.32V52L30,69.28,60,52V17.32L30,0Z"/><path class="cls-2" d="M47.79,24.37,46.2,34.31l1.59,10.6-10,4.16L30,55.18l-8.53-6.53-9.26-3.74,1.43-10.6-1.43-9.94,10.59-4.3,7.2-6,8.06,6Z"/></g></g></svg>