<svg xmlns="http://www.w3.org/2000/svg" viewBox="0 0 60 69.28"><defs><style>.cls-1{fill:#de8300;}.cls-2{fill:#c27200;}.cls-3,.cls-5{opacity:0.5;}.cls-4,.cls-5{fill:#e69500;}.cls-6{fill:none;stroke:#de8300;stroke-miterlimit:10;stroke-width:5px;}</style></defs><title>hex6</title><g id="Layer_2" data-name="Layer 2"><g id="Layer_1-2" data-name="Layer 1"><polygon class="cls-1" points="2.5 50.52 2.5 18.76 30 2.89 57.5 18.76 57.5 50.52 30 66.39 2.5 50.52"/><path class="cls-2" d="M30,5.77,55,20.21V49.07L30,63.51,5,49.07V20.21L30,5.77M30,0,0,17.32V52L30,69.28,60,52V17.32L30,0Z"/><g class="cls-3"><polygon class="cls-4" points="0 17.32 29.68 34.88 30 0 0 17.32"/></g><polygon class="cls-5" points="29.68 34.88 60 17.32 60 51.96 29.68 34.88"/><polygon class="cls-5" points="30 69.28 0 51.96 29.68 34.88 30 69.28"/><path class="cls-6" d="M54.91,20.26V49L30,63.41,5.09,49V20.26L30,5.87Z"/></g></g></svg>