<svg xmlns="http://www.w3.org/2000/svg" viewBox="0 0 55.36 63.92"><defs><style>.cls-1{fill:#fff;}</style></defs><title>ico_lvl5</title><g id="Layer_2" data-name="Layer 2"><g id="Layer_1-2" data-name="Layer 1"><path class="cls-1" d="M27.68,0,0,16v32l27.68,16,27.68-16V16Zm6.75,37.1A5.24,5.24,0,0,1,33,41a5.34,5.34,0,0,1-3.92,1.38H26.27A5.43,5.43,0,0,1,22.32,41a5.25,5.25,0,0,1-1.4-3.92v-.65c0-.48.23-.72.68-.72h2.76c.45,0,.68.24.68.72v.61a2,2,0,0,0,.43,1.44,2,2,0,0,0,1.45.44h1.52A2.17,2.17,0,0,0,30,38.5a1.83,1.83,0,0,0,.49-1.44V34.15A2.82,2.82,0,0,0,30,32.28a2.23,2.23,0,0,0-1.68-.5H26.79a1.42,1.42,0,0,0-1.28.68c-.3.45-.6.68-.93.68H21.89c-.45,0-.68-.21-.68-.65V22.22a.6.6,0,0,1,.68-.68H33.17a.6.6,0,0,1,.68.68v2.46a.61.61,0,0,1-.68.69H25.33v4.76a2.52,2.52,0,0,1,2.72-1.62h1.36q5,0,5,5Z"/></g></g></svg>