<svg xmlns="http://www.w3.org/2000/svg" viewBox="0 0 55.36 63.92"><defs><style>.cls-1{fill:#fff;}</style></defs><title>ico_lvl4</title><g id="Layer_2" data-name="Layer 2"><g id="Layer_1-2" data-name="Layer 1"><path class="cls-1" d="M27.68,0,0,16v32l27.68,16,27.68-16V16Zm8,37.84c0,.5-.21.75-.64.75H32.73V41.7a.78.78,0,0,1-.14.53.71.71,0,0,1-.51.15H29.56a.6.6,0,0,1-.68-.68V38.59h-8a1.15,1.15,0,0,1-.87-.33,1.16,1.16,0,0,1-.33-.87V36.12A3.31,3.31,0,0,1,20,34.54l6.44-12a2.77,2.77,0,0,1,.6-.8,1.37,1.37,0,0,1,.83-.21H31.5a1.21,1.21,0,0,1,.89.33,1.12,1.12,0,0,1,.34.87V35h2.34a.57.57,0,0,1,.64.65Z"/><polygon class="cls-1" points="28.88 35.02 28.88 25.01 23.63 35.02 28.88 35.02"/></g></g></svg>