<svg xmlns="http://www.w3.org/2000/svg" viewBox="0 0 55.36 63.92"><defs><style>.cls-1{fill:#fff;}</style></defs><title>ico_lvl3</title><g id="Layer_2" data-name="Layer 2"><g id="Layer_1-2" data-name="Layer 1"><path class="cls-1" d="M27.68,0,0,16v32l27.68,16,27.68-16V16Zm6.79,28.41a3.38,3.38,0,0,1-2.56,3.53c1.7.37,2.56,1.55,2.56,3.53v1.66A5.2,5.2,0,0,1,33.07,41a5.44,5.44,0,0,1-3.95,1.36H26.24a5.47,5.47,0,0,1-4-1.36,5.2,5.2,0,0,1-1.39-3.89v-.91a.62.62,0,0,1,.68-.71h2.75c.46,0,.68.24.68.71v.84a2,2,0,0,0,.43,1.46,2,2,0,0,0,1.45.42h1.56A2.2,2.2,0,0,0,30,38.5a1.9,1.9,0,0,0,.47-1.44V35.47A1.92,1.92,0,0,0,30,34a2.25,2.25,0,0,0-1.54-.43H26.79a.6.6,0,0,1-.68-.69V31c0-.47.22-.71.68-.71h1.65A2.25,2.25,0,0,0,30,29.82a1.9,1.9,0,0,0,.47-1.44V26.86A1.94,1.94,0,0,0,30,25.41,2.25,2.25,0,0,0,28.44,25H26.88a2,2,0,0,0-1.45.43A2,2,0,0,0,25,26.86v.81a.6.6,0,0,1-.68.68H21.57a.6.6,0,0,1-.68-.68v-.88a5.2,5.2,0,0,1,1.39-3.89,5.47,5.47,0,0,1,4-1.36h2.88a5.44,5.44,0,0,1,3.95,1.36,5.2,5.2,0,0,1,1.4,3.89Z"/></g></g></svg>