<svg xmlns="http://www.w3.org/2000/svg" viewBox="0 0 55.36 63.92"><defs><style>.cls-1{fill:#fff;}</style></defs><title>ico_lvl2</title><g id="Layer_2" data-name="Layer 2"><g id="Layer_1-2" data-name="Layer 1"><path class="cls-1" d="M27.68,0,0,16v32l27.68,16,27.68-16V16Zm6.58,28.09a5.25,5.25,0,0,1-1.95,4.18l-6.09,5.18a1.05,1.05,0,0,0-.39.78v.52h7.74a.6.6,0,0,1,.69.68V41.7a.61.61,0,0,1-.69.68H21.91a.6.6,0,0,1-.68-.68V38.62a4,4,0,0,1,1.59-3.15l6-5a3.39,3.39,0,0,0,1.46-2.59v-1a1.94,1.94,0,0,0-.47-1.45A2.25,2.25,0,0,0,28.23,25H27.09a2,2,0,0,0-1.45.43,2.08,2.08,0,0,0-.43,1.45v1c0,.48-.22.72-.68.72H21.78c-.45,0-.68-.24-.68-.72v-1.1a5.2,5.2,0,0,1,1.39-3.89,5.47,5.47,0,0,1,4-1.36h2.46a5.44,5.44,0,0,1,3.95,1.36,5.2,5.2,0,0,1,1.4,3.89Z"/></g></g></svg>